# xmcd
#
# Track frame offsets:
#	150
#	12235
#	23831
#	39409
#	50810
#	60884
#	76527
#	89965
#	106009
#	115187
#	128889
#	146476
#
# Disc length: 2189 seconds
#
# Revision: 0
# Processed by: cddbd v1.5.2PL0 Copyright (c) Steve Scherf et al.
# Submitted via: EZCDAudioConverter 2.2.2.1
#
DISCID=92088b0c
DTITLE=Acoustic - No 1
DYEAR=1999
DGENRE=country
TTITLE0=Blue moon of Kentucky
TTITLE1=His latest flame
TTITLE2=If I said you had a beautiful body
TTITLE3=Corinna corinna
TTITLE4=I've just seen a face
TTITLE5=Good hearted woman
TTITLE6=Can I come on home to you
TTITLE7=Some broken hearts
TTITLE8=One step forward
TTITLE9=Ring of fire
TTITLE10=Back on my feet
TTITLE11=Blue rodeo
EXTD=
EXTT0=
EXTT1=
EXTT2=
EXTT3=
EXTT4=
EXTT5=
EXTT6=
EXTT7=
EXTT8=
EXTT9=
EXTT10=
EXTT11=
PLAYORDER=
